PathFileType	4	(X/Y/Z)	C:\Users\Basilio\Documents\Thesis Gigler\squatting_fais\c3dfiles\077\SJ_pre3\markers_experimental.trc
DataRate	CameraRate	NumFrames	NumMarkers	Units	OrigDataRate	OrigDataStartFrame	OrigNumFrames
200.000000	200.000000	4	60	mm	200.000000	533	1422
Frame#	Time	FHD			LBHD			RBHD			C7			T10			CLAV			LSHO			LUUPA			LMUPA			LDUPA			LLEP			LMEP			LRAD			LUL			LRFIN			RSHO			RUPA1			RMUPA			RDUPA			RLEP			RMEP			RRAD			RUL			RUFIN			LASI			RASI			USACR			LSACR			RSACR			LTHI1			LTHI2			LTHI3			LTHI4			LLFC			LMFC			LTIB1			LTIB2			LTIB3			LTIB4			LLMAL			LHEE			LMT1			LMT2			LMT5			RTHI			RTHI2			RTHI3			RTHI4			RLFC			RMFC			RTIB1			RTIB2			RTIB3			RTIB4			RLMAL			RMMAL			RHEE			RMT1			RMT2			RMT5			
		X1	Y1	Z1	X2	Y2	Z2	X3	Y3	Z3	X4	Y4	Z4	X5	Y5	Z5	X6	Y6	Z6	X7	Y7	Z7	X8	Y8	Z8	X9	Y9	Z9	X10	Y10	Z10	X11	Y11	Z11	X12	Y12	Z12	X13	Y13	Z13	X14	Y14	Z14	X15	Y15	Z15	X16	Y16	Z16	X17	Y17	Z17	X18	Y18	Z18	X19	Y19	Z19	X20	Y20	Z20	X21	Y21	Z21	X22	Y22	Z22	X23	Y23	Z23	X24	Y24	Z24	X25	Y25	Z25	X26	Y26	Z26	X27	Y27	Z27	X28	Y28	Z28	X29	Y29	Z29	X30	Y30	Z30	X31	Y31	Z31	X32	Y32	Z32	X33	Y33	Z33	X34	Y34	Z34	X35	Y35	Z35	X36	Y36	Z36	X37	Y37	Z37	X38	Y38	Z38	X39	Y39	Z39	X40	Y40	Z40	X41	Y41	Z41	X42	Y42	Z42	X43	Y43	Z43	X44	Y44	Z44	X45	Y45	Z45	X46	Y46	Z46	X47	Y47	Z47	X48	Y48	Z48	X49	Y49	Z49	X50	Y50	Z50	X51	Y51	Z51	X52	Y52	Z52	X53	Y53	Z53	X54	Y54	Z54	X55	Y55	Z55	X56	Y56	Z56	X57	Y57	Z57	X58	Y58	Z58	X59	Y59	Z59	X60	Y60	Z60	

534	2.665	26.90102577209473	1201.359619140625	-903.4144287109377	-115.9212417602539	1093.086547851563	-967.5940551757815	-121.2368087768555	1095.504028320313	-823.245544433594	-177.0132293701172	1040.207763671875	-894.4909667968752	-415.9483947753907	837.097839355469	-903.5454101562502	-66.20623779296876	889.053894042969	-887.9235839843752	-50.94608688354494	949.6897583007815	-1061.3603515625	-121.6077575683594	877.4494628906252	-1256.015502929688	-130.1815795898438	828.6491699218752	-1257.610595703125	-151.7404327392578	848.6680908203127	-1311.026977539063	-195.5783386230469	802.3662109375002	-1348.8984375	-257.2507629394532	864.3977661132815	-1348.952392578125	-430.3687744140626	747.0159301757814	-1136.17529296875	-415.8506774902345	676.0233154296876	-1174.672485351563	nan	nan	nan	-31.80863761901856	929.5041503906252	-719.8596191406251	-139.5142974853516	850.073425292969	-524.4536132812501	-162.114501953125	806.721130371094	-536.8765869140626	-187.2540283203125	819.1416015625002	-483.1686401367189	-244.4730834960938	777.9248657226565	-461.5156250000001	-301.0190734863282	848.158874511719	-459.5115661621095	-473.5620422363282	728.7305908203126	-662.4185791015626	-445.6187744140626	656.7070312500001	-645.0328369140626	nan	nan	nan	nan	nan	nan	nan	nan	nan	-517.8007812500001	770.2102050781252	-908.832702636719	-541.2177734375001	759.5155639648439	-939.3165283203127	-552.3013916015626	755.8009033203126	-885.9533691406252	-428.4835510253907	576.9030761718751	-1166.9541015625	-349.0859069824219	579.9457397460939	-1197.053588867188	-325.9204406738282	619.5287475585939	-1179.720703125	-316.3043212890626	534.3067626953126	-1218.306030273438	-176.3822937011719	493.5692443847657	-1256.648559570313	-125.2255554199219	451.5982360839845	-1139.98486328125	-198.7213745117188	278.1625061035157	-1204.818481445313	-269.7039794921876	263.9455261230469	-1260.493774414063	-235.7001495361329	245.0295410156251	-1237.037963867188	-271.7256774902344	174.3678741455078	-1201.446899414063	-385.7200927734376	102.0705490112305	-1226.889282226563	-438.5709838867189	48.42504119873048	-1170.693725585938	-224.4237976074219	57.87847137451173	-1208.730102539063	-234.4077911376954	59.4910354614258	-1250.041137695313	-335.9094543457032	96.28345489501956	-1153.963623046875	-354.1721496582032	533.8973999023439	-600.2366333007814	-289.0604858398438	557.0012817382814	-580.4257812500001	-274.2281799316407	585.4365844726564	-592.9321899414064	-229.7330474853516	501.1041870117189	-562.5974731445314	-191.4979705810547	468.1084289550782	-547.3833007812501	-129.3588409423828	448.5078430175782	-659.6545410156251	-186.7008361816407	334.3760070800782	-557.5382080078126	-287.6044311523438	294.4829406738282	-552.2539062500001	-247.1139831542969	271.6796875000001	-562.1937866210939	-248.9730987548829	227.6389160156251	-601.6129150390626	-395.0892028808595	96.68450927734378	-597.9954833984376	-343.9351501464844	89.48117065429689	-673.2336425781251	-446.4304809570314	47.14864730834962	-665.5955810546876	-237.7821502685547	59.5914649963379	-575.8387451171876	-253.9995422363282	61.53169250488283	-541.8157958984376	-286.1355285644532	42.18285751342774	-501.2360229492189	
535	2.67	26.90867614746094	1201.326416015625	-903.3620605468752	-115.8650360107422	1092.995849609375	-967.5468750000002	-121.2075653076172	1095.42431640625	-823.171325683594	-176.9980010986328	1040.214233398438	-894.4321899414065	-416.0177001953126	837.0039062500002	-903.5709228515627	-65.8627395629883	888.6790771484377	-888.0005493164065	-50.67267227172853	949.2967529296877	-1061.4453125	-121.7986907958985	877.369079589844	-1256.058715820313	-130.1551666259766	828.5532226562502	-1257.607421875	-151.6836090087891	848.604187011719	-1311.02001953125	-195.6329193115235	802.3338012695315	-1348.898559570313	-257.1887207031251	864.3879394531252	-1348.91015625	-430.3215942382814	746.7392578125001	-1136.177001953125	-415.8438110351564	675.8959350585939	-1174.739501953125	nan	nan	nan	-31.74048042297364	929.257995605469	-719.8979492187501	-139.3253479003907	849.8293457031252	-524.4770507812501	-162.118148803711	806.442077636719	-537.0403442382814	-187.1197204589844	818.8010253906252	-483.1652832031251	-244.4464721679688	777.581237792969	-461.4803771972657	-300.8829345703126	847.9021606445315	-459.4410705566407	-473.6059875488282	728.7278442382814	-662.3819580078126	-445.6556091308595	656.6443481445314	-645.0715942382814	nan	nan	nan	nan	nan	nan	nan	nan	nan	-517.7750854492189	770.1627197265627	-908.8702392578127	-541.2940063476564	759.4603271484376	-939.302185058594	-552.3742675781251	755.8212280273439	-885.9664306640627	-428.5120239257814	576.8033447265626	-1167.07373046875	-349.1487121582032	579.9273681640626	-1197.006591796875	-326.0486755371094	619.5196533203126	-1179.659545898438	-316.1387634277344	534.1835327148439	-1218.287231445313	-176.3165435791016	493.6167602539064	-1256.624267578125	-125.2262649536133	451.606170654297	-1139.979125976563	-198.7771148681641	278.1753234863282	-1204.873168945313	-269.9353942871094	263.3411254882813	-1260.4521484375	-236.1838989257813	244.1179809570313	-1237.205322265625	-271.7471618652344	174.3663330078125	-1201.436279296875	-385.6930236816407	102.0197830200196	-1226.843505859375	-438.5633850097657	48.41467666625978	-1170.654174804688	-224.4400024414063	57.78507614135744	-1208.749145507813	-234.4533386230469	59.5287322998047	-1250.0712890625	-335.9236755371094	96.27032470703128	-1153.96630859375	-354.2194824218751	533.8358154296876	-600.2527465820314	-289.0752563476563	557.0276489257814	-580.4586791992189	-274.2494812011719	585.4660644531251	-592.9793701171876	-229.7286376953126	501.1558837890626	-562.6485595703126	-191.5381622314453	468.114471435547	-547.4739990234376	-129.3028869628907	448.4472045898439	-659.6795043945314	-186.7271728515625	334.4211730957032	-557.5792846679689	-287.6584472656251	294.5299987792969	-552.2637939453126	-247.1975555419922	271.5894165039063	-562.2496948242189	-248.9798278808594	227.6707000732422	-601.6455688476564	-395.0786743164064	96.71977233886722	-597.9317626953126	-344.0192565917969	89.46289825439455	-673.1918945312501	-446.3953247070314	47.21347808837891	-665.5543212890626	-237.8298339843751	59.58552169799806	-575.9114990234376	-254.0005340576172	61.55269622802736	-541.8161621093751	-286.1542358398438	42.17852401733399	-501.2197875976564	
536	2.675	26.98657417297364	1201.224731445313	-903.2330322265627	-115.8227005004883	1092.561279296875	-967.5046997070315	-121.1494674682617	1095.25634765625	-823.1000976562502	-176.9652709960938	1040.177124023438	-894.4227294921877	-416.0628967285157	836.9531250000002	-903.5856933593752	-66.13595581054689	888.8103027343752	-887.9712524414065	-50.69624710083009	949.4216918945315	-1061.392700195313	-121.7046356201172	877.350769042969	-1256.031372070313	-130.1527709960938	828.513854980469	-1257.634887695313	-151.6354522705078	848.5531005859377	-1311.061889648438	-195.6536407470704	802.3675537109377	-1348.8798828125	-257.2751770019532	864.3730468750002	-1348.85546875	-430.4368896484376	746.6392211914064	-1136.278686523438	-415.7713317871095	675.7401123046876	-1174.699340820313	nan	nan	nan	-31.6605567932129	929.054626464844	-719.9322509765626	-139.2627868652344	849.4036254882815	-524.5108032226564	-162.0919952392578	806.1406250000002	-537.0285644531251	-187.0751647949219	818.4487304687502	-483.2608947753907	-244.3463592529297	777.3838500976565	-461.5267333984376	-300.8063354492188	847.6514892578127	-459.4238586425782	-473.5792541503907	728.5958251953126	-662.3811645507814	-445.7105712890626	656.5950317382814	-645.1358642578126	nan	nan	nan	nan	nan	nan	nan	nan	nan	-517.8850097656251	770.1757812500002	-908.9262695312502	-541.3617553710939	759.3084106445314	-939.3526611328127	-552.3511962890626	755.8115844726564	-886.0300292968752	-428.5669555664064	576.7671508789064	-1166.83642578125	-349.3686828613282	579.6559448242189	-1197.300537109375	-326.0517578125001	619.3551025390626	-1179.568481445313	-316.2374877929688	534.2775878906251	-1218.283935546875	-176.3086395263672	493.5905761718751	-1256.638549804688	-125.2225341796875	451.618377685547	-1139.98876953125	-198.7440032958985	278.1354675292969	-1204.875610351563	-269.9738769531251	263.2878723144532	-1260.441284179688	-236.2857513427735	244.3700256347657	-1237.206176757813	-271.6240539550782	174.3834686279297	-1201.379028320313	-385.6929321289064	102.1346817016602	-1226.894409179688	-438.4936523437501	48.38256835937501	-1170.654418945313	-224.4481048583985	57.71438217163087	-1208.7607421875	-234.4547729492188	59.44291305541994	-1250.030151367188	-335.9186706542969	96.22178649902347	-1153.987670898438	-354.2607116699219	533.8618164062501	-600.2650146484376	-289.1455688476563	557.0195922851564	-580.4650878906251	-274.2928466796876	585.4826049804689	-592.9780273437501	-229.7987518310547	501.1349182128907	-562.6835937500001	-191.5392456054688	468.1776123046876	-547.4849243164064	-129.358154296875	448.4557495117189	-659.6920776367189	-186.7385864257813	334.4919738769532	-557.6159057617189	-287.6512145996094	294.5874938964844	-552.2740478515626	-247.1834564208985	271.6564025878907	-562.2707519531251	-248.9759521484376	227.6631164550782	-601.6477661132814	-395.0873107910157	96.71952819824222	-597.9619750976564	-343.0447692871094	89.14733886718751	-672.7655029296876	-446.417694091797	47.23567199707032	-665.5800781250001	-237.7994537353516	59.53611755371095	-575.8797607421876	-254.0106811523438	61.46566390991212	-541.8587036132814	-286.1458740234376	42.18630599975587	-501.2245483398439	
537	2.68	27.04672431945801	1201.084106445313	-903.1820068359377	-115.7196884155274	1092.510009765625	-967.5441894531252	-121.0714187622071	1095.177734375	-823.093933105469	-176.8934936523438	1040.065673828125	-894.369567871094	-416.1011962890626	836.8882446289065	-903.666687011719	-66.11937713623048	888.6662597656252	-887.9156494140627	-50.56420135498048	949.4606933593752	-1061.339477539063	-121.690170288086	877.365905761719	-1256.06298828125	-130.1189117431641	828.502624511719	-1257.615600585938	-151.7559967041016	848.6201782226565	-1310.977294921875	-195.6652832031251	802.3649902343752	-1348.830688476563	-257.3266601562501	864.4409179687502	-1348.714965820313	-430.5210876464845	746.4898071289064	-1136.322631835938	-415.8126525878907	675.5703125000001	-1174.709838867188	nan	nan	nan	-31.56073760986329	928.8310546875002	-719.8948974609376	-139.2485046386719	848.9575195312502	-524.5366210937501	-162.0188598632813	805.8062744140627	-537.0927124023439	-187.0359649658203	818.0073242187502	-483.3609619140626	-244.2694702148438	777.2075805664065	-461.5775146484376	-300.7085876464844	847.4241943359377	-459.4087524414064	-473.6040954589845	728.6076049804689	-662.3630981445314	-445.7959289550782	656.5249023437501	-645.1558837890626	nan	nan	nan	nan	nan	nan	nan	nan	nan	-517.9010009765626	770.1523437500002	-909.002624511719	-541.4650268554689	759.2420654296876	-939.4634399414065	-552.4655151367189	755.7400512695314	-886.0501708984377	-428.7046203613282	576.5713500976564	-1167.234619140625	-349.1106567382813	579.7763061523439	-1197.024780273438	-326.0549621582032	619.2902832031251	-1179.530395507813	-316.4237670898438	534.2319946289064	-1218.332641601563	-176.3213653564453	493.5499572753907	-1256.521362304688	-125.2215347290039	451.5606689453126	-1139.980590820313	-198.7525024414063	278.1811523437501	-1204.867065429688	-270.0246582031251	263.3678283691407	-1260.401977539063	-236.3145751953126	244.3589935302735	-1237.206909179688	-271.7435913085938	174.3636932373047	-1201.476440429688	-385.8342285156251	102.1232223510742	-1226.75146484375	-438.5150451660157	48.32704544067384	-1170.722290039063	-224.364242553711	57.73507690429689	-1208.730346679688	-234.4187927246094	59.5225296020508	-1250.053100585938	-335.9358825683594	96.23938751220706	-1153.994873046875	-354.2904052734376	533.9149780273439	-600.2543334960939	-289.1820678710938	557.0447998046876	-580.5073852539064	-274.3267211914063	585.5536499023439	-593.0518798828126	-229.8121185302735	501.1696777343751	-562.7465820312501	-191.5593872070313	468.2506103515626	-547.5383911132814	-129.4399566650391	448.4882202148439	-659.7095336914064	-186.7799072265625	334.4887390136719	-557.6186523437501	-287.6668701171876	294.6149597167969	-552.3450317382814	-247.2011871337891	271.7090454101563	-562.2296752929689	-249.0261688232422	227.6663208007813	-601.6885986328126	-395.1662597656251	96.62171936035159	-597.9409179687501	-343.0187377929688	89.18994903564455	-672.7495117187501	-446.4831848144532	47.1302833557129	-665.5565795898439	-237.8227539062501	59.54209136962892	-575.8960571289064	-254.0029296875001	61.604793548584	-541.8004760742189	-286.1630249023438	42.17018127441407	-501.2139587402345	
